PathFileType	4	(X/Y/Z)	/home/abdul/Desktop/myosuite/custom_workspace/IK/output/S19_12_1.trc
DataRate	CameraRate	NumFrames	NumMarkers	Units	OrigDataRate	OrigDataStartFrame	OrigNumFrames
200.0	200.0	95	3	mm	200.0	636	1694
Frame#	Time	V_Shoulder			V_Elbow			V_Wrist		
		X1	Y1	Z1	X2	Y2	Z2	X3	Y3	Z3

636	3.175	-108.42430582573282	710.1758642044375	327.91103326753523				-129.5575610509731	477.2385313052249	268.6354206626116
637	3.18	-108.40187841001443	710.241073071472	327.9172624449494				-129.44782401929308	477.117961654885	268.5882476519695
638	3.185	-108.37897671009328	710.2995965620785	327.92279534335415				-129.33432176360918	476.97860908002133	268.53393384141236
639	3.19	-108.35561407771172	710.3515310027218	327.9276497760004				-129.2169112172893	476.8208129278168	268.4727225840263
640	3.195	-108.33180315513839	710.396975552752	327.9318434911026				-129.09545347875343	476.64489840128954	268.40483945502785
641	3.2	-108.30755587412075	710.4360320536385	327.93539414851267				-128.96981424102498	476.4511759093708	268.3304920230062
642	3.205	-108.28288345702465	710.468804874854	327.9383192966796				-128.83986420346008	476.23994047115815	268.2498696538171
643	3.21	-108.25779642012019	710.4954007567027	327.9406363499416				-128.70547946515612	476.0114711748899	268.16314334713405
644	3.215	-108.23230457896811	710.5159286504022	327.94236256619934				-128.56654189960543	475.7660306921083	268.0704656056805
645	3.22	-108.20641705585392	710.5304995557203	327.9435150250138				-128.42293951022563	475.5038648474023	267.9719703371918
646	3.225	-108.18014228921271	710.539226356488	327.9441106061802				-128.27456676645852	475.2252022440446	267.8677727891801
647	3.23	-108.15348804498159	710.5422236543048	327.9441659688205				-128.12132492018995	474.9302539457676	267.7579695165981
648	3.235	-108.1264614298118	710.5396076007629	327.94369753104337				-127.9631223022991	474.6192132148517	267.64263838252396
649	3.24	-108.09906890606874	710.5314957285149	327.9427214502148				-127.79987459920108	474.2922553066296	267.52183859201136
650	3.245	-108.07131630854212	710.5180067815144	327.94125360388665				-127.63150510929759	473.94953732044024	267.3956107592708
651	3.25	-108.04320886278639	710.4992605447629	327.939309571424				-127.45794497930034	473.5911981069987	267.2639770083658
652	3.255	-108.01475120500619	710.4753776738895	327.9369046163762				-127.27913342043726	473.21735823207484	267.1269411076258
653	3.26	-107.98594740339946	710.4464795248978	327.9340536696306				-127.09501790459652	472.82811999630576	266.98448863798654
654	3.265	-107.95680098086672	710.4126879844075	327.93077131339095				-126.90555434050302	472.4235675108912	266.83658719548
655	3.27	-107.9273149389931	710.3741253007196	327.9270717660152				-126.71070723006089	472.00376682884803	266.6831866280953
656	3.275	-107.89749178320733	710.3309139160289	327.9229688677521				-126.51044980503076	471.5687661314217	266.5242193072336
657	3.28	-107.86733354901901	710.2831763001054	327.91847606740674				-126.3047641442425	471.11859596917355	266.3596004339687
658	3.285	-107.83684182923527	710.2310347857612	327.91360640997004				-126.0936412715746	470.65326955718155	266.1892283803142
659	3.29	-107.80601780205518	710.1746114064122	327.90837252523914				-125.87708123495807	470.17278312370365	266.0129850656743
660	3.295	-107.77486225994062	710.1140277360437	327.902786617456				-125.65509316668698	469.67711631156965	265.8307363686323
661	3.3	-107.74337563916096	710.0494047318733	327.8968604559885				-125.42769532533933	469.16623263147187	265.64233257419363
662	3.305	-107.71155804990934	709.9808625800064	327.89060536707433				-125.19491511963164	468.6400799662339	265.4476088565601
663	3.31	-107.67940930688754	709.9085205443603	327.88403222664715				-124.9567891145463	468.0985911250363	265.24638579746454
664	3.315	-107.6469289602581	709.832496819137	327.87715145425824				-124.71336302008547	467.54168444647894	265.03846994003686
665	3.32	-107.61411632686236	709.7529083851024	327.8699730081061				-124.46469166301767	466.9692644492559	264.8236543781122
666	3.325	-107.5809705216041	709.6698708699247	327.8625063811839				-124.2108389419914	466.3812225291103	264.60171938081726
667	3.33	-107.54749048890085	709.5834984128169	327.8547605985467				-123.95187776639892	465.77743770062796	264.37243305219573
668	3.335	-107.51367503410547	709.4939035337106	327.84674421570384				-123.68788997937833	465.1577773823146	264.13555202554664
669	3.34	-107.47952285480382	709.4011970071797	327.8384653181306				-123.41896626534523	464.52209822328587	263.89082219205494
670	3.345	-107.44503257189547	709.305487741318	327.8299315218972				-123.14520604244767	463.8702469697828	263.6379794631971
671	3.35	-107.41020276036845	709.2068826617655	327.8211499754032				-122.86671734033791	463.2020613696018	263.3767505662941
672	3.355	-107.37503197968014	709.1054866010569	327.81212736220573				-122.58361666365397	462.51737111240925	263.1068538724731
673	3.36	-107.33951880366135	709.0014021934632	327.80286990492397				-122.29602884160154	461.8159988037854	262.8280002561794
674	3.365	-107.30366184986217	708.8947297754677	327.79338337020096				-122.00408686402395	461.0977609707162	262.5398939852551
675	3.37	-107.26745980826304	708.78556729202	327.7836730746977				-121.70793170434405	460.3624690961285	262.24223364047
676	3.375	-107.23091146927761	708.6740102086827	327.77374389209126				-121.40771212975767	459.6099306799358	261.9347130632573
677	3.38	-107.19401575097747	708.560151429779	327.76360026104794				-121.10358449905408	458.8399503239366	261.6170223302673
678	3.385	-107.15677172547389	708.4440812226294	327.75324619413317				-120.79571254843484	458.05233083778387	261.28884875320796
679	3.39	-107.11917864439472	708.325887147953	327.74268528762286				-120.48426716569813	457.2468743631197	260.9498779023014
680	3.395	-107.08123596339983	708.2056539964918	327.73192073217166				-120.16942615315281	456.423383512849	260.5997946515342
681	3.4	-107.04294336568205	708.0834637318993	327.72095532429495				-119.85137397962319	455.58166252240926	260.23828424373386
682	3.405	-107.004300784406	707.9593954399237	327.70979147861476				-119.53030152190522	454.7215184097797	259.86503337335665
683	3.41	-106.96530842404086	707.8335252838966	327.69843124081814				-119.20640579603374	453.84276214086526	259.4797312847231
684	3.415	-106.92596678054785	707.7059264665203	327.686876301274				-118.87988967872225	452.9452097967874	259.08207088329357
685	3.42	-106.88627666038894	707.5766691979397	327.6751280092506				-118.55096161934034	452.0286837395199	258.6717498574339
686	3.425	-106.84623919832603	707.4458206700609	327.66318738767336				-118.21983534279846	451.09301377222005	258.2484718079799
687	3.43	-106.80585587398622	707.3134450370662	327.6510551483618				-117.88672954371737	450.13803829052614	257.81194738277804
688	3.435	-106.76512852717222	707.1796034020634	327.63873170767965				-117.55186757226875	449.163605421026	257.3618954132485
689	3.44	-106.7240593719024	707.044353809789	327.62621720253264				-117.21547711208572	448.1695741430435	256.8980440498976
690	3.445	-106.68265100916858	706.9077512452718	327.61351150664433				-116.87778985065552	447.1558153898449	256.420131893589
691	3.45	-106.64090643840491	706.7698476383488	327.60061424704105				-116.53904114262372	446.1222131253355	255.92790911928077
692	3.455	-106.59882906766556	706.6306918739148	327.58752482067337				-116.19946966645777	445.068665392303	255.4211385888395
693	3.46	-106.5564227225121	706.4903298077685	327.5742424111019				-115.85931707493887	443.99508532825934	254.8995969494556
694	3.465	-106.51369165361746	706.3488042879111	327.5607660051747				-115.51882763997455	442.90140214494977	254.3630757141148
695	3.47	-106.47064054309578	706.2061551811375	327.5470944096208				-115.17824789224936	441.78756206762944	253.81138232051885
696	3.475	-106.4272745095722	706.0624194047513	327.533226267486				-114.83782625625845	440.6535292302584	253.2443411648008
697	3.48	-106.38359911201024	705.9176309632179	327.5191600743367				-114.49781268129712	439.4992865228348	252.66179460635038
698	3.485	-106.33962035231833	705.7718209895705	327.50489419415663				-114.1584582690097	438.32483638717434	252.06360394004645
699	3.49	-106.29534467675968	705.6250177913626	327.49042687486366				-113.82001489813206	437.1302015575518	251.44965033219268
700	3.495	-106.25077897619401	705.4772469009581	327.4757562633709				-113.48273484709333	435.91542574274786	250.81983571646748
701	3.5	-106.20593058518229	705.3285311299414	327.4608804201239				-113.14687041517443	434.68057424619354	250.17408364623216
702	3.505	-106.16080727998815	705.178890627421	327.4457973330388				-112.81267354295306	433.4257345210727	249.5123400995882
703	3.51	-106.11541727551311	705.0283429419896	327.4305049307756				-112.48039543279438	432.15101665743055	248.83457423364405
704	3.515	-106.06976922120462	704.8769030871091	327.4150010952769				-112.15028617017816	430.8565537985475	248.14077908453433
705	3.52	-106.02387219597851	704.724583609666	327.39928367350825				-111.82259434668022	429.5425024840629	247.43097220983657
706	3.525	-105.97773570219927	704.5713946614583	327.3833504883362				-111.49756668545254	428.2090429175805	246.70519627015165
707	3.53	-105.93136965876347	704.4173440733525	327.36719934848406				-111.1754476700699	426.85637915675477	245.96351954675026
708	3.535	-105.88478439333333	704.2624374318619	327.3508280575089				-110.8564791776307	425.48473922413586	245.20603639234423
709	3.54	-105.83799063376854	704.1066781578819	327.3342344217449				-110.54090011701692	424.0943751373526	244.43286761221123
710	3.545	-105.79099949880629	703.950067587329	327.3174162571625				-110.22894607322985	422.68556285752567	243.64416077309156
711	3.55	-105.74382248803903	703.7926050534207	327.300371395098				-109.92084895872652	421.2586021551281	242.84009043747875
712	3.555	-105.69647147124222	703.6342879703378	327.2830976868089				-109.6168366726843	419.8138163928518	242.02085832114557
713	3.56	-105.64895867710271	703.4751119180104	327.26559300681726				-109.31713276911805	418.3515522253873	241.18669337198043
714	3.565	-105.6012966814003	703.3150707277747	327.2478552550074				-109.02195613476604	416.8721792163805	240.3378517684557
715	3.57	-105.55349839469432	703.1541565686445	327.2298823574469				-108.73152067764565	415.37608937319726	239.47461683630897
716	3.575	-105.50557704956657	702.9923600339483	327.2116722659075				-108.44603502715847	413.86369660049485	238.59729888228904
717	3.58	-105.45754618747286	702.8296702280887	327.19322295606463				-108.16570224659682	412.33543607397166	237.70623494409892
718	3.585	-105.40941964525318	702.6660748531843	327.17453242436284				-107.89071955886868	410.7917635360388	236.80178845595697
719	3.59	-105.36121154135144	702.501560295356	327.1555986835356				-107.62127808621646	409.2331545155297	235.88434882949457
720	3.595	-105.31293626179324	702.3361117104372	327.1364197567768				-107.35756260465595	407.6601034739298	234.95433095001204
721	3.6	-105.26460844597004	702.1697131088835	327.11699367056576				-107.09975131380727	406.0731228809693	234.01217458842115
722	3.605	-105.21624297227635	702.002347439669	327.09731844615277				-106.84801562272762	404.4727422227761	233.05834372951415
723	3.61	-105.1678549436453	701.8339966729709	327.07739208971793				-106.60251995228698	402.85950694612507	232.09332581751133
724	3.615	-105.11945967302582	701.6646418814422	327.05721258122315				-106.36342155455435	401.23397734265257	231.11763092015292
725	3.62	-105.07107266884346	701.4942633198965	327.03677786198085				-106.13087034958176	399.59672737721684	230.13179081291167
726	3.625	-105.02270962048453	701.3228405032228	327.0160858209718				-105.90500877988868	397.94834346488295	229.13635798521307
727	3.63	-104.97438638384146	701.1503522823728	326.9951342799473				-105.68597168286053	396.28942320128715	228.13190457085383
728	3.635	-104.92611896695456	700.9767769182675	326.97392097735843				-105.47388618118103	394.6205740513957	227.11902120510987
729	3.64	-104.87792351578402	700.8020921534832	326.9524435511619				-105.26887159132241	392.9424120019034	226.0983158113169
730	3.645	-104.8298163001424	700.6262752815877	326.93069952055635				-105.07103935001835	391.25556018272925	225.0704123199912
